<svg height="496pt" viewBox="-80 0 496 496" width="496pt" xmlns="http://www.w3.org/2000/svg"><path d="m336 168c0-92.640625-75.367188-168-168-168s-168 75.359375-168 168c0 61.992188 33.585938 118.097656 88 147.585938v20.414062h-16v16h16v16h-16v16h16v24c0 4.414062 3.574219 8 8 8h8v24c0 4.414062 3.574219 8 8 8h8c0 26.472656 21.527344 48 48 48s48-21.527344 48-48h8c4.425781 0 8-3.585938 8-8v-24h8c4.425781 0 8-3.585938 8-8v-24h16v-16h-16v-16h16v-16h-16v-20.414062c54.414062-29.488282 88-85.59375 88-147.585938zm-168 312c-17.648438 0-32-14.351562-32-32h64c0 17.648438-14.351562 32-32 32zm48-48h-96v-16h96zm16-32h-128v-16h128zm0-32h-128v-16h128zm-128-32v-25.257812c0-3.015626-1.695312-5.773438-4.390625-7.140626-51.570313-26.066406-83.609375-78.027343-83.609375-135.601562 0-83.816406 68.183594-152 152-152s152 68.183594 152 152c0 57.574219-32.039062 109.535156-83.609375 135.601562-2.695313 1.367188-4.390625 4.117188-4.390625 7.140626v25.257812zm0 0"/><path d="m168 128c13.230469 0 24-10.769531 24-24v-48c0-13.230469-10.769531-24-24-24s-24 10.769531-24 24v48c0 13.230469 10.769531 24 24 24zm-8-72c0-4.40625 3.585938-8 8-8s8 3.59375 8 8v48c0 4.40625-3.585938 8-8 8s-8-3.59375-8-8zm0 0"/><path d="m288 168c0-49.414062-31-94.472656-77.144531-112.121094l-5.71875 14.945313c40 15.296875 66.863281 54.34375 66.863281 97.175781 0 57.34375-46.65625 104-104 104s-104-46.65625-104-104c0-42.832031 26.863281-81.878906 66.855469-97.167969l-5.71875-14.945312c-46.136719 17.640625-77.136719 62.699219-77.136719 112.113281 0 66.167969 53.832031 120 120 120s120-53.832031 120-120zm0 0"/></svg>