<svg height="496pt" viewBox="-80 0 496 496" width="496pt" xmlns="http://www.w3.org/2000/svg"><path d="m328 168c0-88.367188-71.632812-160-160-160s-160 71.632812-160 160c0 62.433594 35.839844 116.375 88 142.742188v97.257812h144v-97.257812c52.160156-26.367188 88-80.308594 88-142.742188zm0 0" fill="#d1a339"/><path d="m237.734375 24.167969c-21.09375-10.257813-44.695313-16.167969-69.734375-16.167969-88.367188 0-160 71.632812-160 160 0 62.433594 35.839844 116.375 88 142.742188v9.152343c1.335938.035157 2.65625.105469 4 .105469 99.40625 0 180-80.59375 180-180 0-44.128906-15.902344-84.527344-42.265625-115.832031zm0 0" fill="#f0d365"/><path d="m112 408v32h112v-32" fill="#976947"/><path d="m128 440v8c0 22.089844 17.910156 40 40 40s40-17.910156 40-40v-8" fill="#8892a0"/><path d="m96 344h144v32h-144zm0 0" fill="#976947"/><path d="m96 376h144v32h-144zm0 0" fill="#c18e59"/><path d="m168 120c-8.839844 0-16-7.160156-16-16v-48c0-8.839844 7.160156-16 16-16s16 7.160156 16 16v48c0 8.839844-7.160156 16-16 16zm0 0" fill="#e4725f"/><path d="m240 416h-144c-4.425781 0-8-3.585938-8-8v-92.414062c-54.414062-29.488282-88-85.59375-88-147.585938 0-92.640625 75.367188-168 168-168s168 75.359375 168 168c0 61.992188-33.585938 118.097656-88 147.585938v92.414062c0 4.414062-3.574219 8-8 8zm-136-16h128v-89.257812c0-3.015626 1.695312-5.773438 4.390625-7.140626 51.570313-26.066406 83.609375-78.027343 83.609375-135.601562 0-83.816406-68.183594-152-152-152s-152 68.183594-152 152c0 57.574219 32.039062 109.535156 83.609375 135.601562 2.695313 1.367188 4.390625 4.117188 4.390625 7.140626zm0 0"/><path d="m72 336h192v16h-192zm0 0"/><path d="m72 368h192v16h-192zm0 0"/><path d="m224 448h-112c-4.425781 0-8-3.585938-8-8v-32h16v24h96v-24h16v32c0 4.414062-3.574219 8-8 8zm0 0"/><path d="m168 496c-26.472656 0-48-21.527344-48-48v-8h16v8c0 17.648438 14.351562 32 32 32s32-14.351562 32-32v-8h16v8c0 26.472656-21.527344 48-48 48zm0 0"/><path d="m168 128c-13.230469 0-24-10.769531-24-24v-48c0-13.230469 10.769531-24 24-24s24 10.769531 24 24v48c0 13.230469-10.769531 24-24 24zm0-80c-4.414062 0-8 3.59375-8 8v48c0 4.40625 3.585938 8 8 8s8-3.59375 8-8v-48c0-4.40625-3.585938-8-8-8zm0 0"/><path d="m168 288c-66.167969 0-120-53.832031-120-120 0-49.414062 31-94.472656 77.144531-112.121094l5.71875 14.945313c-40 15.296875-66.863281 54.34375-66.863281 97.175781 0 57.34375 46.65625 104 104 104s104-46.65625 104-104c0-42.832031-26.863281-81.878906-66.855469-97.167969l5.71875-14.945312c46.136719 17.640625 77.136719 62.699219 77.136719 112.113281 0 66.167969-53.832031 120-120 120zm0 0"/></svg>