<svg height="512" viewBox="0 0 64 64" width="512" xmlns="http://www.w3.org/2000/svg" xmlns:xlink="http://www.w3.org/1999/xlink"><linearGradient id="New_Gradient_Swatch_1" gradientUnits="userSpaceOnUse" x1="18" x2="18" y1="2.156" y2="65.376"><stop offset="0" stop-color="#fff33b"/><stop offset=".014" stop-color="#fee72e"/><stop offset=".042" stop-color="#fed51b"/><stop offset=".07" stop-color="#fdca10"/><stop offset=".1" stop-color="#fdc70c"/><stop offset=".4" stop-color="#f3903f"/><stop offset=".8" stop-color="#ed683c"/><stop offset="1" stop-color="#e93e3a"/></linearGradient><linearGradient id="New_Gradient_Swatch_1-2" x1="33" x2="33" xlink:href="#New_Gradient_Swatch_1" y1="2.156" y2="65.376"/><linearGradient id="New_Gradient_Swatch_1-3" gradientTransform="matrix(.707 .707 -.707 .707 28.606 -11.849)" x1="28.606" x2="28.606" xlink:href="#New_Gradient_Swatch_1" y1="2.156" y2="65.376"/><linearGradient id="New_Gradient_Swatch_1-4" gradientTransform="matrix(.707 .707 -.707 .707 22.393 3.151)" x1="7.394" x2="7.394" xlink:href="#New_Gradient_Swatch_1" y1="2.156" y2="65.376"/><linearGradient id="New_Gradient_Swatch_1-5" x1="3" x2="3" xlink:href="#New_Gradient_Swatch_1" y1="2.156" y2="65.376"/><linearGradient id="New_Gradient_Swatch_1-6" gradientTransform="matrix(.707 .707 -.707 .707 7.394 -3.063)" x1="7.394" x2="7.394" xlink:href="#New_Gradient_Swatch_1" y1="2.156" y2="65.376"/><linearGradient id="New_Gradient_Swatch_1-7" gradientTransform="matrix(.707 .707 -.707 .707 13.607 -18.062)" x1="28.606" x2="28.606" xlink:href="#New_Gradient_Swatch_1" y1="2.156" y2="65.376"/><linearGradient id="New_Gradient_Swatch_1-8" x1="47" x2="47" xlink:href="#New_Gradient_Swatch_1" y1="2.156" y2="65.376"/><linearGradient id="New_Gradient_Swatch_1-11" x1="43" x2="43" xlink:href="#New_Gradient_Swatch_1" y1="2.156" y2="65.376"/><g id="Smart_Light" data-name="Smart Light"><path d="m17 2h2v2h-2z" fill="url(#New_Gradient_Swatch_1)"/><path d="m32 17h2v2h-2z" fill="url(#New_Gradient_Swatch_1-2)"/><path d="m27.607 27.607h2v2h-2z" fill="url(#New_Gradient_Swatch_1-3)" transform="matrix(.707 -.707 .707 .707 -11.849 28.606)"/><path d="m6.394 27.607h2v2h-2z" fill="url(#New_Gradient_Swatch_1-4)" transform="matrix(.707 -.707 .707 .707 -18.062 13.607)"/><path d="m2 17h2v2h-2z" fill="url(#New_Gradient_Swatch_1-5)"/><path d="m6.394 6.394h2v2h-2z" fill="url(#New_Gradient_Swatch_1-6)" transform="matrix(.707 -.707 .707 .707 -3.063 7.394)"/><path d="m27.607 6.394h2v2h-2z" fill="url(#New_Gradient_Swatch_1-7)" transform="matrix(.707 -.707 .707 .707 3.151 22.393)"/><g fill="url(#New_Gradient_Swatch_1-8)"><path d="m47 32a15 15 0 1 0 15 15 15.017 15.017 0 0 0 -15-15zm0 28a13 13 0 1 1 13-13 13.015 13.015 0 0 1 -13 13z"/><path d="m51 38.943-.887 1.793a7 7 0 1 1 -6.232 0l-.881-1.793a9 9 0 1 0 8.006 0z"/><path d="m46 37h2v8h-2z"/></g><path d="m42.293 17.707 1.414-1.414-2.293-2.293h3.586a1 1 0 0 1 1 1v15h2v-15a3 3 0 0 0 -3-3h-3.586l2.293-2.293-1.414-1.414-4 4a1 1 0 0 0 0 1.414z" fill="url(#New_Gradient_Swatch_1-11)"/><path d="m22.707 47.293-1.414 1.414 2.293 2.293h-3.586a1 1 0 0 1 -1-1v-12.1a5.009 5.009 0 0 0 4-4.9v-1h1a1 1 0 0 0 1-1v-3.5a11.555 11.555 0 0 0 5-9.5 12 12 0 0 0 -24 0 11.555 11.555 0 0 0 5 9.5v3.5a1 1 0 0 0 1 1h1v1a5.009 5.009 0 0 0 4 4.9v12.1a3 3 0 0 0 3 3h3.586l-2.293 2.293 1.414 1.414 4-4a1 1 0 0 0 0-1.414zm.293-17.293h-10v-2h10zm-15-12a10 10 0 0 1 20 0 9.614 9.614 0 0 1 -4.326 8h-4.674v-6h3v-2h-8v2h3v6h-4.674a9.614 9.614 0 0 1 -4.326-8zm7 15v-1h6v1a3 3 0 0 1 -6 0z" fill="url(#New_Gradient_Swatch_1)"/></g></svg>